<svg width="32" height="32" viewBox="0 0 32 32" fill="none" xmlns="http://www.w3.org/2000/svg">
<path d="M2.66675 4H10.6667C12.0812 4 13.4378 4.5619 14.438 5.5621C15.4382 6.56229 16.0001 7.91885 16.0001 9.33333V28C16.0001 26.9391 15.5787 25.9217 14.8285 25.1716C14.0784 24.4214 13.0609 24 12.0001 24H2.66675V4Z" stroke="black" stroke-width="2" stroke-linecap="round" stroke-linejoin="round"/>
<path d="M29.3333 4H21.3333C19.9188 4 18.5623 4.5619 17.5621 5.5621C16.5619 6.56229 16 7.91885 16 9.33333V28C16 26.9391 16.4214 25.9217 17.1716 25.1716C17.9217 24.4214 18.9391 24 20 24H29.3333V4Z" stroke="black" stroke-width="2" stroke-linecap="round" stroke-linejoin="round"/>
</svg>
